<?xml version="1.0" encoding="UTF-8" standalone="no"?>
<!DOCTYPE svg PUBLIC "-//W3C//DTD SVG 1.1//EN" "http://www.w3.org/Graphics/SVG/1.1/DTD/svg11.dtd">
<svg width="100%" height="100%" viewBox="0 0 458 174" version="1.1" xmlns="http://www.w3.org/2000/svg" xmlns:xlink="http://www.w3.org/1999/xlink" xml:space="preserve" xmlns:serif="http://www.serif.com/" style="fill-rule:evenodd;clip-rule:evenodd;stroke-linejoin:round;stroke-miterlimit:2;">
    <g transform="matrix(1,0,0,1,-817.314,-6348.09)">
        <g transform="matrix(2.2882,0,0,2.2882,1046.13,6435.05)">
            <g transform="matrix(1,0,0,1,-100,-38)">
                <g>
                    <clipPath id="_clip1">
                        <rect x="4" y="1.219" width="191.176" height="73.781"/>
                    </clipPath>
                    <g clip-path="url(#_clip1)">
                        <path d="M4,3.094C4,2.742 4.285,2.457 4.637,2.457L17.198,2.457C20.868,2.457 23.715,3.487 25.611,5.386C27.219,6.994 28.086,9.263 28.086,11.986L28.086,12.069C28.086,16.729 25.571,19.659 21.898,21.02L28.269,30.335C28.558,30.758 28.256,31.333 27.742,31.333L21.866,31.333C21.654,31.333 21.454,31.227 21.336,31.051L15.464,22.282C15.386,22.165 15.252,22.093 15.112,22.093L10.772,22.093C10.536,22.093 10.347,22.284 10.347,22.518L10.347,30.694C10.347,31.046 10.062,31.331 9.71,31.331L4.637,31.331C4.285,31.331 4,31.046 4,30.694L4,3.094ZM16.786,16.481C19.878,16.481 21.652,14.83 21.652,12.398L21.652,12.315C21.652,9.592 19.755,8.19 16.66,8.19L10.774,8.19C10.538,8.19 10.349,8.381 10.349,8.615L10.349,16.056C10.349,16.292 10.54,16.481 10.774,16.481L16.786,16.481Z" style="fill:rgb(42,131,247);fill-rule:nonzero;"/>
                        <path d="M28.377,20.398L28.377,20.315C28.377,13.964 33.492,8.806 40.379,8.806C47.265,8.806 52.3,13.879 52.3,20.232L52.3,20.315C52.3,26.666 47.185,31.824 40.296,31.824C33.407,31.824 28.375,26.751 28.375,20.398L28.377,20.398ZM46.112,20.398L46.112,20.315C46.112,17.057 43.761,14.21 40.296,14.21C36.831,14.21 34.563,16.974 34.563,20.232L34.563,20.315C34.563,23.574 36.914,26.42 40.379,26.42C43.843,26.42 46.112,23.656 46.112,20.398Z" style="fill:rgb(42,131,247);fill-rule:nonzero;"/>
                        <path d="M54.464,1.219L59.458,1.219C59.811,1.219 60.095,1.503 60.095,1.856L60.095,30.69C60.095,31.042 59.811,31.327 59.458,31.327L54.464,31.327C54.112,31.327 53.827,31.042 53.827,30.69L53.827,1.856C53.827,1.503 54.112,1.219 54.464,1.219Z" style="fill:rgb(42,131,247);fill-rule:nonzero;"/>
                        <path d="M61.621,20.398L61.621,20.315C61.621,14.004 66.115,8.806 72.552,8.806C79.935,8.806 83.317,14.539 83.317,20.81C83.317,21.133 83.3,21.49 83.277,21.859C83.255,22.195 82.977,22.458 82.639,22.458L68.399,22.458C68.116,22.458 67.908,22.73 67.989,23C68.732,25.492 70.631,26.79 73.253,26.79C75.188,26.79 76.632,26.231 78.2,24.893C78.442,24.685 78.801,24.685 79.039,24.897L81.735,27.282C82,27.516 82.025,27.924 81.788,28.187C79.748,30.454 76.91,31.824 73.17,31.824C66.53,31.824 61.621,27.163 61.621,20.398ZM76.711,18.544C76.976,18.544 77.18,18.301 77.129,18.04C76.634,15.514 75.028,13.843 72.55,13.843C70.071,13.843 68.473,15.474 67.872,18.025C67.808,18.291 68.014,18.546 68.288,18.546L76.711,18.546L76.711,18.544Z" style="fill:rgb(42,131,247);fill-rule:nonzero;"/>
                        <path d="M100.045,24.281C99.877,24.534 99.505,24.534 99.338,24.281L92.347,13.787C92.115,13.435 91.567,13.598 91.567,14.021L91.567,30.692C91.567,31.044 91.283,31.329 90.93,31.329L85.977,31.329C85.624,31.329 85.339,31.044 85.339,30.692L85.339,3.094C85.339,2.742 85.624,2.457 85.977,2.457L91.831,2.457C92.052,2.457 92.256,2.572 92.372,2.759L99.414,14.085C99.58,14.352 99.971,14.352 100.136,14.085L107.178,2.759C107.295,2.572 107.499,2.457 107.72,2.457L113.574,2.457C113.926,2.457 114.211,2.742 114.211,3.094L114.211,30.692C114.211,31.044 113.926,31.329 113.574,31.329L108.54,31.329C108.187,31.329 107.902,31.044 107.902,30.692L107.902,13.898C107.902,13.475 107.354,13.312 107.123,13.664L100.049,24.281L100.045,24.281Z" style="fill:rgb(42,131,247);fill-rule:nonzero;"/>
                        <path d="M116.108,20.398L116.108,20.315C116.108,13.964 121.223,8.806 128.11,8.806C134.996,8.806 140.031,13.879 140.031,20.232L140.031,20.315C140.031,26.666 134.916,31.824 128.027,31.824C121.138,31.824 116.106,26.751 116.106,20.398L116.108,20.398ZM133.843,20.398L133.843,20.315C133.843,17.057 131.491,14.21 128.027,14.21C124.562,14.21 122.294,16.974 122.294,20.232L122.294,20.315C122.294,23.574 124.645,26.42 128.11,26.42C131.574,26.42 133.843,23.656 133.843,20.398Z" style="fill:rgb(42,131,247);fill-rule:nonzero;"/>
                        <path d="M141.103,20.315L141.103,20.232C141.103,12.849 145.929,8.806 151.168,8.806C154.001,8.806 155.913,9.902 157.336,11.319C157.602,11.585 158.056,11.389 158.056,11.013L158.056,1.856C158.056,1.503 158.341,1.219 158.694,1.219L163.688,1.219C164.04,1.219 164.325,1.503 164.325,1.856L164.325,30.69C164.325,31.042 164.04,31.327 163.688,31.327L158.694,31.327C158.341,31.327 158.056,31.042 158.056,30.69L158.056,29.339C158.056,28.954 157.583,28.763 157.323,29.045C155.868,30.639 153.935,31.739 151.17,31.739C146.014,31.739 141.105,27.697 141.105,20.313L141.103,20.315ZM158.137,20.315L158.137,20.232C158.137,16.562 155.703,14.127 152.776,14.127C149.849,14.127 147.372,16.519 147.372,20.232L147.372,20.315C147.372,23.986 149.846,26.42 152.776,26.42C155.705,26.42 158.137,23.986 158.137,20.315Z" style="fill:rgb(42,131,247);fill-rule:nonzero;"/>
                        <path d="M165.561,20.398L165.561,20.315C165.561,14.004 170.058,8.806 176.492,8.806C183.876,8.806 187.257,14.539 187.257,20.81C187.257,21.133 187.241,21.49 187.217,21.859C187.196,22.195 186.918,22.458 186.58,22.458L172.339,22.458C172.057,22.458 171.849,22.73 171.929,23C172.673,25.492 174.572,26.79 177.193,26.79C179.126,26.79 180.573,26.231 182.14,24.893C182.382,24.685 182.741,24.685 182.979,24.897L185.675,27.282C185.941,27.516 185.966,27.924 185.728,28.187C183.689,30.454 180.851,31.824 177.11,31.824C170.47,31.824 165.561,27.163 165.561,20.398ZM180.651,18.544C180.917,18.544 181.121,18.301 181.07,18.04C180.575,15.514 178.969,13.843 176.492,13.843C174.015,13.843 172.416,15.474 171.815,18.025C171.751,18.291 171.957,18.546 172.231,18.546L180.653,18.546L180.651,18.544Z" style="fill:rgb(42,131,247);fill-rule:nonzero;"/>
                        <path d="M189.545,1.219L194.539,1.219C194.892,1.219 195.177,1.503 195.177,1.856L195.177,30.69C195.177,31.042 194.892,31.327 194.539,31.327L189.545,31.327C189.193,31.327 188.908,31.042 188.908,30.69L188.908,1.856C188.908,1.503 189.193,1.219 189.545,1.219Z" style="fill:rgb(42,131,247);fill-rule:nonzero;"/>
                        <path d="M20.433,63.973L21.559,62.387C21.697,62.193 21.962,62.153 22.155,62.289C24.373,63.863 26.801,64.757 29.191,64.757C31.748,64.757 33.605,63.438 33.605,61.376L33.605,61.293C33.605,59.147 31.09,58.323 28.284,57.539C24.942,56.59 21.229,55.436 21.229,51.517L21.229,51.434C21.229,47.764 24.282,45.329 28.488,45.329C30.945,45.329 33.662,46.141 35.799,47.452C36.001,47.575 36.067,47.836 35.946,48.038L34.941,49.705C34.818,49.909 34.554,49.969 34.352,49.845C32.462,48.703 30.344,48.012 28.409,48.012C25.894,48.012 24.284,49.331 24.284,51.105L24.284,51.188C24.284,53.208 26.924,53.992 29.771,54.859C33.069,55.848 36.617,57.127 36.617,60.963L36.617,61.046C36.617,65.089 33.276,67.44 29.027,67.44C26.113,67.44 22.897,66.35 20.53,64.564C20.346,64.424 20.301,64.165 20.435,63.975L20.433,63.973Z" style="fill:white;fill-rule:nonzero;"/>
                        <path d="M37.974,56.469L37.974,56.386C37.974,50.364 42.677,45.249 49.111,45.249C55.545,45.249 60.206,50.281 60.206,56.303L60.206,56.386C60.206,62.408 55.463,67.523 49.028,67.523C42.594,67.523 37.974,62.491 37.974,56.469ZM56.947,56.471L56.947,56.386C56.947,51.808 53.523,48.055 49.028,48.055C44.534,48.055 41.233,51.808 41.233,56.305L41.233,56.388C41.233,60.966 44.614,64.679 49.111,64.679C53.608,64.679 56.947,60.966 56.947,56.471Z" style="fill:white;fill-rule:nonzero;"/>
                        <path d="M62.882,48.507L60.592,48.507C60.357,48.507 60.168,48.316 60.168,48.082L60.168,46.169C60.168,45.933 60.359,45.744 60.592,45.744L62.882,45.744C62.999,45.744 63.095,45.648 63.095,45.531L63.095,43.887C63.095,41.453 63.755,39.598 64.951,38.4C66.024,37.328 67.592,36.75 69.529,36.75C70.869,36.75 71.808,36.884 72.736,37.183C72.913,37.241 73.036,37.404 73.036,37.589L73.036,39.488C73.036,39.768 72.768,39.97 72.499,39.898C71.598,39.656 70.842,39.511 69.943,39.511C67.468,39.511 66.23,40.996 66.23,44.048L66.23,45.567C66.23,45.684 66.326,45.78 66.442,45.78L72.569,45.78C72.804,45.78 72.993,45.971 72.993,46.205L72.993,48.076C72.993,48.312 72.802,48.501 72.569,48.501L66.483,48.501C66.366,48.501 66.27,48.596 66.27,48.713L66.27,66.595C66.27,66.83 66.079,67.019 65.846,67.019L63.52,67.019C63.284,67.019 63.095,66.828 63.095,66.595L63.095,48.713C63.095,48.596 62.999,48.501 62.882,48.501L62.882,48.507Z" style="fill:white;fill-rule:nonzero;"/>
                        <path d="M94.955,45.701L97.432,45.701C97.617,45.701 97.778,45.82 97.836,45.994L103.148,62.208C103.212,62.404 103.488,62.404 103.552,62.208L108.986,45.909C109.043,45.735 109.207,45.618 109.389,45.618L111.416,45.618C111.598,45.618 111.76,45.735 111.819,45.907L117.293,62.21C117.359,62.404 117.633,62.404 117.697,62.21L123.012,45.994C123.069,45.82 123.232,45.701 123.415,45.701L125.807,45.701C126.1,45.701 126.304,45.99 126.208,46.266L118.999,66.905C118.94,67.075 118.778,67.189 118.598,67.189L116.439,67.189C116.257,67.189 116.095,67.073 116.038,66.9L110.604,50.948C110.538,50.757 110.269,50.757 110.203,50.948L104.729,66.9C104.669,67.073 104.508,67.187 104.327,67.187L102.129,67.187C101.948,67.187 101.787,67.073 101.727,66.903L94.558,46.264C94.463,45.988 94.667,45.699 94.96,45.699L94.955,45.701Z" style="fill:white;fill-rule:nonzero;"/>
                        <path d="M125.954,60.84L125.954,60.757C125.954,56.18 129.667,53.786 135.068,53.786C137.662,53.786 139.508,54.124 141.316,54.618C141.452,54.655 141.585,54.555 141.585,54.414L141.585,54.034C141.585,50.24 139.276,48.259 135.274,48.259C132.936,48.259 131.058,48.794 129.214,49.599C128.989,49.697 128.726,49.588 128.641,49.357L127.984,47.56C127.908,47.35 128.006,47.116 128.209,47.025C130.433,46.041 132.628,45.372 135.602,45.372C138.575,45.372 140.963,46.196 142.49,47.723C143.975,49.208 144.719,51.271 144.719,53.992L144.719,66.601C144.719,66.837 144.527,67.026 144.294,67.026L142.01,67.026C141.774,67.026 141.585,66.835 141.585,66.601L141.585,64.439C141.585,64.241 141.343,64.152 141.212,64.301C139.703,66.013 137.367,67.48 133.913,67.48C129.911,67.48 125.951,65.212 125.951,60.84L125.954,60.84ZM141.626,59.19L141.626,57.371C141.626,57.276 141.564,57.193 141.473,57.167C139.924,56.728 137.913,56.303 135.398,56.303C131.438,56.303 129.17,58.036 129.17,60.592L129.17,60.675C129.17,63.355 131.644,64.923 134.531,64.923C138.45,64.923 141.626,62.571 141.626,59.19Z" style="fill:white;fill-rule:nonzero;"/>
                        <path d="M159.511,48.339C159.511,48.565 159.337,48.754 159.112,48.764C154.622,48.951 150.815,52.282 150.815,58.531L150.815,66.603C150.815,66.839 150.624,67.028 150.39,67.028L148.064,67.028C147.828,67.028 147.639,66.837 147.639,66.603L147.639,46.128C147.639,45.892 147.831,45.703 148.064,45.703L150.39,45.703C150.626,45.703 150.815,45.894 150.815,46.128L150.815,50.351C150.815,50.572 151.11,50.646 151.212,50.453C152.808,47.462 155.563,45.353 159.078,45.325C159.316,45.325 159.509,45.514 159.509,45.752L159.509,48.342L159.511,48.339Z" style="fill:white;fill-rule:nonzero;"/>
                        <path d="M169.376,64.759C172.15,64.759 174.147,63.687 175.823,62.03C175.982,61.873 176.235,61.87 176.401,62.019L177.758,63.234C177.937,63.396 177.947,63.672 177.782,63.846C175.693,66.057 173.151,67.523 169.293,67.523C163.437,67.523 158.651,63.026 158.651,56.386C158.651,50.198 162.982,45.249 168.881,45.249C175.192,45.249 178.822,50.281 178.822,56.551C178.822,56.753 178.822,56.974 178.808,57.259C178.797,57.486 178.61,57.664 178.383,57.664L162.109,57.664C161.982,57.664 161.88,57.777 161.897,57.902C162.441,62.251 165.691,64.757 169.376,64.757L169.376,64.759ZM175.366,55.107C175.494,55.107 175.594,54.997 175.579,54.871C175.141,51.097 172.919,47.932 168.798,47.932C165.2,47.932 162.432,50.865 161.899,54.869C161.882,54.997 161.984,55.109 162.111,55.109L175.366,55.109L175.366,55.107Z" style="fill:white;fill-rule:nonzero;"/>
                        <path d="M84.895,37.51L84.895,45.478C84.895,45.595 84.991,45.691 85.108,45.691L90.639,45.691C90.822,45.691 90.985,45.807 91.043,45.981L91.695,47.936C91.786,48.212 91.582,48.497 91.291,48.497L85.191,48.497C85.074,48.497 84.978,48.592 84.978,48.709L84.978,73.81C84.978,73.995 84.859,74.157 84.685,74.214L82.353,74.977C82.079,75.066 81.796,74.862 81.796,74.573L81.796,48.707C81.796,48.59 81.701,48.494 81.584,48.494L76.63,48.494C76.394,48.494 76.205,48.303 76.205,48.07L76.205,46.115C76.205,45.88 76.396,45.691 76.63,45.691L81.584,45.691C81.701,45.691 81.796,45.595 81.796,45.478L81.796,37.51C81.796,37.275 81.987,37.085 82.221,37.085L84.473,37.085C84.708,37.085 84.897,37.277 84.897,37.51L84.895,37.51Z" style="fill:rgb(42,131,247);fill-rule:nonzero;"/>
                    </g>
                </g>
            </g>
        </g>
    </g>
</svg>
