<svg width="66" height="66" viewBox="0 0 66 66" fill="none" xmlns="http://www.w3.org/2000/svg">
<g clip-path="url(#clip0_262_6978)">
<path d="M65.9356 0H0V66H65.9356V0Z" fill="#2A83F7" style="fill:#2A83F7;fill:color(display-p3 0.1647 0.5137 0.9686);fill-opacity:1;"/>
<path d="M17.2441 15.1168C17.2441 14.6599 17.6126 14.291 18.0691 14.291H34.3289C39.0806 14.291 42.7654 15.626 45.2211 18.0867C47.3027 20.1704 48.4246 23.1101 48.4246 26.6389V26.7462C48.4246 32.7853 45.1688 36.581 40.4143 38.3454L48.6611 50.4152C49.0351 50.963 48.6446 51.7089 47.9791 51.7089H40.373C40.098 51.7089 39.8396 51.5713 39.6856 51.3428L32.085 39.9804C31.9833 39.829 31.8101 39.7354 31.6285 39.7354H26.0106C25.7054 39.7354 25.4607 39.9831 25.4607 40.2859V50.8803C25.4607 51.3373 25.0922 51.7061 24.6357 51.7061H18.0691C17.6126 51.7061 17.2441 51.3373 17.2441 50.8803V15.1168ZM33.7955 32.4632C37.7992 32.4632 40.0953 30.3245 40.0953 27.1729V27.0655C40.0953 23.5368 37.6397 21.7201 33.6332 21.7201H26.0134C25.7081 21.7201 25.4634 21.9678 25.4634 22.2706V31.9127C25.4634 32.2182 25.7109 32.4632 26.0134 32.4632H33.7927H33.7955Z" fill="white" style="fill:white;fill-opacity:1;"/>
</g>
<defs>
<clipPath id="clip0_262_6978">
<rect width="66" height="66" fill="white" style="fill:white;fill-opacity:1;"/>
</clipPath>
</defs>
</svg>
