<svg width="200" height="76" viewBox="0 0 200 76" fill="none" xmlns="http://www.w3.org/2000/svg">
<g clip-path="url(#clip0_6606_4496)">
<path d="M4 3.09429C4 2.74167 4.28464 2.45703 4.63725 2.45703H17.1975C20.8681 2.45703 23.7145 3.48726 25.6114 5.38628C27.2194 6.99429 28.0861 9.26291 28.0861 11.9861V12.069C28.0861 16.7294 25.5711 19.6587 21.8984 21.0203L28.2688 30.3348C28.5577 30.7575 28.256 31.3332 27.742 31.3332H21.8665C21.6541 31.3332 21.4544 31.227 21.3355 31.0507L15.4642 22.282C15.3856 22.1652 15.2518 22.093 15.1116 22.093H10.7719C10.5361 22.093 10.3471 22.2842 10.3471 22.5178V30.6938C10.3471 31.0464 10.0624 31.3311 9.7098 31.3311H4.63725C4.28464 31.3311 4 31.0464 4 30.6938V3.09429ZM16.7855 16.4809C19.8783 16.4809 21.652 14.8304 21.652 12.3982V12.3154C21.652 9.59216 19.7551 8.1902 16.6601 8.1902H10.774C10.5382 8.1902 10.3492 8.38138 10.3492 8.61504V16.0561C10.3492 16.2918 10.5404 16.4809 10.774 16.4809H16.7833H16.7855Z" fill="#2A83F7"/>
<path d="M28.3771 20.3979V20.315C28.3771 13.9637 33.4922 8.80621 40.3788 8.80621C47.2654 8.80621 52.2997 13.8788 52.2997 20.2322V20.315C52.2997 26.6663 47.1846 31.8239 40.2959 31.8239C33.4072 31.8239 28.375 26.7513 28.375 20.3979H28.3771ZM46.1119 20.3979V20.315C46.1119 17.0565 43.7605 14.2101 40.2959 14.2101C36.8314 14.2101 34.5627 16.9737 34.5627 20.2322V20.315C34.5627 23.5735 36.9142 26.4199 40.3788 26.4199C43.8433 26.4199 46.1119 23.6564 46.1119 20.3979Z" fill="#2A83F7"/>
<path d="M54.4642 1.21863H59.4581C59.8108 1.21863 60.0954 1.50327 60.0954 1.85588V30.6895C60.0954 31.0422 59.8108 31.3268 59.4581 31.3268H54.4642C54.1116 31.3268 53.8269 31.0422 53.8269 30.6895V1.85588C53.8269 1.50327 54.1116 1.21863 54.4642 1.21863Z" fill="#2A83F7"/>
<path d="M61.6206 20.3979V20.315C61.6206 14.0041 66.1153 8.80621 72.5516 8.80621C79.9353 8.80621 83.317 14.5394 83.317 20.81C83.317 21.1328 83.3 21.4897 83.2766 21.8593C83.2554 22.1949 82.9771 22.4583 82.6394 22.4583H68.3988C68.1163 22.4583 67.9082 22.7302 67.9889 23C68.7323 25.4917 70.6314 26.7895 73.2526 26.7895C75.1877 26.7895 76.6322 26.2309 78.1998 24.8927C78.442 24.6845 78.801 24.6845 79.0389 24.8969L81.7345 27.2824C82 27.516 82.0255 27.9239 81.7876 28.1873C79.7484 30.4538 76.9104 31.8239 73.1698 31.8239C66.5296 31.8239 61.6206 27.1634 61.6206 20.3979ZM76.7108 18.5435C76.9763 18.5435 77.1802 18.3013 77.1292 18.04C76.6343 15.5144 75.0284 13.8427 72.5495 13.8427C70.0706 13.8427 68.4732 15.474 67.872 18.0252C67.8083 18.2907 68.0144 18.5456 68.2884 18.5456H76.7108V18.5435Z" fill="#2A83F7"/>
<path d="M100.045 24.2809C99.8771 24.5337 99.5054 24.5337 99.3376 24.2809L92.3469 13.7874C92.1153 13.4348 91.5673 13.5984 91.5673 14.0211V30.6917C91.5673 31.0443 91.2827 31.3289 90.93 31.3289H85.9765C85.6238 31.3289 85.3392 31.0443 85.3392 30.6917V3.09429C85.3392 2.74167 85.6238 2.45703 85.9765 2.45703H91.8307C92.0516 2.45703 92.2555 2.57174 92.3724 2.75867L99.414 14.0848C99.5797 14.3525 99.9706 14.3525 100.136 14.0848L107.178 2.75867C107.295 2.57174 107.499 2.45703 107.72 2.45703H113.574C113.926 2.45703 114.211 2.74167 114.211 3.09429V30.6917C114.211 31.0443 113.926 31.3289 113.574 31.3289H108.54C108.187 31.3289 107.902 31.0443 107.902 30.6917V13.8979C107.902 13.4752 107.354 13.3116 107.123 13.6642L100.049 24.2809H100.045Z" fill="#2A83F7"/>
<path d="M116.108 20.3979V20.315C116.108 13.9637 121.223 8.80621 128.11 8.80621C134.996 8.80621 140.031 13.8788 140.031 20.2322V20.315C140.031 26.6663 134.916 31.8239 128.027 31.8239C121.138 31.8239 116.106 26.7513 116.106 20.3979H116.108ZM133.843 20.3979V20.315C133.843 17.0565 131.491 14.2101 128.027 14.2101C124.562 14.2101 122.294 16.9737 122.294 20.2322V20.315C122.294 23.5735 124.645 26.4199 128.11 26.4199C131.574 26.4199 133.843 23.6564 133.843 20.3979Z" fill="#2A83F7"/>
<path d="M141.103 20.315V20.2322C141.103 12.8485 145.929 8.80621 151.168 8.80621C154.001 8.80621 155.913 9.90229 157.336 11.3191C157.602 11.5846 158.056 11.3892 158.056 11.0132V1.85588C158.056 1.50327 158.341 1.21863 158.694 1.21863H163.688C164.04 1.21863 164.325 1.50327 164.325 1.85588V30.6895C164.325 31.0422 164.04 31.3268 163.688 31.3268H158.694C158.341 31.3268 158.056 31.0422 158.056 30.6895V29.3386C158.056 28.9541 157.583 28.7629 157.323 29.0454C155.868 30.6386 153.935 31.7389 151.17 31.7389C146.014 31.7389 141.105 27.6966 141.105 20.3129L141.103 20.315ZM158.137 20.315V20.2322C158.137 16.5616 155.703 14.1273 152.776 14.1273C149.849 14.1273 147.372 16.5191 147.372 20.2322V20.315C147.372 23.9856 149.846 26.4199 152.776 26.4199C155.705 26.4199 158.137 23.9856 158.137 20.315Z" fill="#2A83F7"/>
<path d="M165.561 20.3979V20.315C165.561 14.0041 170.058 8.80621 176.492 8.80621C183.876 8.80621 187.257 14.5394 187.257 20.81C187.257 21.1328 187.241 21.4897 187.217 21.8593C187.196 22.1949 186.918 22.4583 186.58 22.4583H172.339C172.057 22.4583 171.849 22.7302 171.929 23C172.673 25.4917 174.572 26.7895 177.193 26.7895C179.126 26.7895 180.573 26.2309 182.14 24.8927C182.382 24.6845 182.741 24.6845 182.979 24.8969L185.675 27.2824C185.941 27.516 185.966 27.9239 185.728 28.1873C183.689 30.4538 180.851 31.8239 177.11 31.8239C170.47 31.8239 165.561 27.1634 165.561 20.3979ZM180.651 18.5435C180.917 18.5435 181.121 18.3013 181.07 18.04C180.575 15.5144 178.969 13.8427 176.492 13.8427C174.015 13.8427 172.416 15.474 171.815 18.0252C171.751 18.2907 171.957 18.5456 172.231 18.5456H180.653L180.651 18.5435Z" fill="#2A83F7"/>
<path d="M189.545 1.21863H194.539C194.892 1.21863 195.177 1.50327 195.177 1.85588V30.6895C195.177 31.0422 194.892 31.3268 194.539 31.3268H189.545C189.193 31.3268 188.908 31.0422 188.908 30.6895V1.85588C188.908 1.50327 189.193 1.21863 189.545 1.21863Z" fill="#2A83F7"/>
<path d="M20.4327 63.9734L21.5585 62.3866C21.6966 62.1933 21.9621 62.1529 22.1554 62.2889C24.373 63.8629 26.801 64.7572 29.1907 64.7572C31.7482 64.7572 33.6047 63.4381 33.6047 61.3755V61.2926C33.6047 59.1472 31.0897 58.323 28.2836 57.5392C24.9423 56.5897 21.2292 55.4363 21.2292 51.5171V51.4343C21.2292 47.7637 24.2817 45.3294 28.4876 45.3294C30.9452 45.3294 33.6621 46.1408 35.799 47.4515C36.0008 47.5747 36.0666 47.8359 35.9456 48.0377L34.9408 49.7052C34.8176 49.9091 34.5542 49.9686 34.3524 49.8454C32.4619 48.7026 30.3441 48.0122 28.409 48.0122C25.8939 48.0122 24.2838 49.3314 24.2838 51.1051V51.1879C24.2838 53.208 26.9242 53.9918 29.7706 54.8585C33.0694 55.8484 36.6168 57.1271 36.6168 60.9634V61.0462C36.6168 65.0886 33.2755 67.44 29.0271 67.44C26.1127 67.44 22.8967 66.3503 20.5304 64.5639C20.3456 64.4237 20.301 64.1645 20.4348 63.9755L20.4327 63.9734Z" fill="#0C2227"/>
<path d="M37.9742 56.4686V56.3858C37.9742 50.3637 42.6771 45.2487 49.1112 45.2487C55.5454 45.2487 60.2059 50.2809 60.2059 56.3029V56.3858C60.2059 62.4078 55.4625 67.5229 49.0284 67.5229C42.5942 67.5229 37.9742 62.4907 37.9742 56.4686ZM56.9474 56.4686V56.3858C56.9474 51.8082 53.5232 48.0547 49.0284 48.0547C44.5336 48.0547 41.2326 51.8082 41.2326 56.3051V56.3879C41.2326 60.9655 44.6143 64.6786 49.1112 64.6786C53.6081 64.6786 56.9474 60.9655 56.9474 56.4707V56.4686Z" fill="#0C2227"/>
<path d="M62.8823 48.5072H60.5924C60.3567 48.5072 60.1676 48.316 60.1676 48.0823V46.1685C60.1676 45.9327 60.3588 45.7436 60.5924 45.7436H62.8823C62.9991 45.7436 63.0947 45.648 63.0947 45.5312V43.8871C63.0947 41.4528 63.7553 39.5984 64.9513 38.4003C66.024 37.3276 67.5916 36.7498 69.5289 36.7498C70.8692 36.7498 71.8081 36.8837 72.7364 37.1832C72.9127 37.2405 73.0359 37.4041 73.0359 37.5889V39.4879C73.0359 39.7683 72.7683 39.9701 72.4985 39.8979C71.5978 39.6557 70.8416 39.5113 69.9431 39.5113C67.4684 39.5113 66.23 40.9961 66.23 44.0485V45.5673C66.23 45.6841 66.3256 45.7797 66.4424 45.7797H72.5686C72.8044 45.7797 72.9934 45.9709 72.9934 46.2046V48.076C72.9934 48.3118 72.8022 48.5008 72.5686 48.5008H66.4828C66.366 48.5008 66.2704 48.5964 66.2704 48.7132V66.5946C66.2704 66.8304 66.0792 67.0194 65.8455 67.0194H63.5196C63.2838 67.0194 63.0947 66.8283 63.0947 66.5946V48.7132C63.0947 48.5964 62.9991 48.5008 62.8823 48.5008V48.5072Z" fill="#0C2227"/>
<path d="M94.9554 45.7011H97.4322C97.617 45.7011 97.7784 45.8201 97.8358 45.9943L103.148 62.2082C103.212 62.4036 103.488 62.4036 103.552 62.2082L108.986 45.9093C109.043 45.7351 109.207 45.6183 109.389 45.6183H111.416C111.598 45.6183 111.76 45.7351 111.819 45.9072L117.293 62.2103C117.359 62.4036 117.633 62.4036 117.697 62.2103L123.012 45.9943C123.069 45.8201 123.232 45.7011 123.415 45.7011H125.807C126.1 45.7011 126.304 45.99 126.208 46.2662L118.999 66.9047C118.94 67.0747 118.778 67.1894 118.598 67.1894H116.439C116.257 67.1894 116.095 67.0725 116.038 66.9005L110.604 50.9479C110.538 50.7567 110.269 50.7567 110.203 50.9479L104.729 66.9005C104.669 67.0725 104.508 67.1873 104.327 67.1873H102.129C101.948 67.1873 101.787 67.0726 101.727 66.9026L94.5581 46.2641C94.4626 45.9879 94.6665 45.699 94.9596 45.699L94.9554 45.7011Z" fill="#0C2227"/>
<path d="M125.954 60.8402V60.7573C125.954 56.1797 129.667 53.7858 135.068 53.7858C137.662 53.7858 139.508 54.1235 141.316 54.6185C141.452 54.6546 141.585 54.5547 141.585 54.4145V54.0343C141.585 50.2405 139.276 48.2587 135.274 48.2587C132.936 48.2587 131.058 48.7939 129.214 49.599C128.989 49.6967 128.726 49.5884 128.641 49.3569L127.984 47.5598C127.908 47.3495 128.006 47.1158 128.209 47.0245C130.433 46.041 132.628 45.3719 135.602 45.3719C138.575 45.3719 140.963 46.1961 142.49 47.7234C143.975 49.2082 144.719 51.2707 144.719 53.9918V66.601C144.719 66.8368 144.527 67.0258 144.294 67.0258H142.01C141.774 67.0258 141.585 66.8346 141.585 66.601V64.4386C141.585 64.241 141.343 64.1518 141.212 64.3005C139.703 66.0126 137.367 67.4804 133.913 67.4804C129.911 67.4804 125.951 65.2118 125.951 60.8402H125.954ZM141.626 59.1897V57.3714C141.626 57.2758 141.564 57.193 141.473 57.1675C139.924 56.7278 137.913 56.3029 135.398 56.3029C131.438 56.3029 129.17 58.0363 129.17 60.5917V60.6745C129.17 63.3552 131.644 64.9229 134.531 64.9229C138.45 64.9229 141.626 62.5714 141.626 59.1897Z" fill="#0C2227"/>
<path d="M159.511 48.3394C159.511 48.5645 159.337 48.7536 159.112 48.7642C154.622 48.9511 150.815 52.2819 150.815 58.5312V66.6031C150.815 66.8389 150.624 67.0279 150.39 67.0279H148.064C147.828 67.0279 147.639 66.8368 147.639 66.6031V46.1281C147.639 45.8923 147.831 45.7033 148.064 45.7033H150.39C150.626 45.7033 150.815 45.8944 150.815 46.1281V50.351C150.815 50.5719 151.11 50.6462 151.212 50.4529C152.808 47.4621 155.563 45.3528 159.078 45.3252C159.316 45.3252 159.509 45.5142 159.509 45.7521V48.3415L159.511 48.3394Z" fill="#0C2227"/>
<path d="M169.376 64.7593C172.15 64.7593 174.147 63.6866 175.823 62.0297C175.982 61.8725 176.235 61.8704 176.401 62.0191L177.758 63.2341C177.937 63.3956 177.947 63.6717 177.782 63.8459C175.693 66.0572 173.151 67.5229 169.293 67.5229C163.437 67.5229 158.651 63.026 158.651 56.3858C158.651 50.198 162.982 45.2487 168.881 45.2487C175.192 45.2487 178.822 50.2809 178.822 56.5515C178.822 56.7533 178.822 56.9742 178.808 57.2588C178.797 57.4861 178.61 57.6645 178.383 57.6645H162.109C161.982 57.6645 161.88 57.7771 161.897 57.9024C162.441 62.2507 165.691 64.7572 169.376 64.7572V64.7593ZM175.366 55.107C175.494 55.107 175.594 54.9966 175.579 54.8712C175.141 51.0966 172.919 47.9315 168.798 47.9315C165.2 47.9315 162.432 50.865 161.899 54.8691C161.882 54.9966 161.984 55.1091 162.111 55.1091H175.366V55.107Z" fill="#0C2227"/>
<path d="M84.8952 37.5103V45.4781C84.8952 45.5949 84.9908 45.6905 85.1076 45.6905H90.639C90.8217 45.6905 90.9853 45.8073 91.0426 45.9815L91.6947 47.9358C91.7861 48.2119 91.5822 48.4966 91.2911 48.4966H85.1905C85.0737 48.4966 84.9781 48.5921 84.9781 48.709V73.8104C84.9781 73.9953 84.8591 74.1567 84.6849 74.2141L82.3526 74.9766C82.0786 75.0658 81.796 74.8619 81.796 74.573V48.7069C81.796 48.59 81.7005 48.4944 81.5836 48.4944H76.63C76.3943 48.4944 76.2052 48.3033 76.2052 48.0696V46.1154C76.2052 45.8796 76.3964 45.6905 76.63 45.6905H81.5836C81.7005 45.6905 81.796 45.5949 81.796 45.4781V37.5103C81.796 37.2745 81.9872 37.0854 82.2209 37.0854H84.4725C84.7083 37.0854 84.8974 37.2766 84.8974 37.5103H84.8952Z" fill="#2A83F7"/>
</g>
<defs>
<clipPath id="clip0_6606_4496">
<rect width="191.176" height="73.7814" fill="white" transform="translate(4 1.21863)"/>
</clipPath>
</defs>
</svg>
